<?xml version="1.0" standalone="no"?>
<svg xmlns:xlink="http://www.w3.org/1999/xlink" id="wave" style="transform:rotate(180deg); transition: 0.3s" viewBox="0 0 1440 490" version="1.1" xmlns="http://www.w3.org/2000/svg"><defs><linearGradient id="sw-gradient-0" x1="0" x2="0" y1="1" y2="0"><stop stop-color="rgba(253.043, 0, 0, 1)" offset="0%"/><stop stop-color="rgba(166.526, 53.942, 0, 1)" offset="100%"/></linearGradient></defs><path style="transform:translate(0, 0px); opacity:1" fill="url(#sw-gradient-0)" d="M0,0L48,40.8C96,82,192,163,288,228.7C384,294,480,343,576,326.7C672,310,768,229,864,236.8C960,245,1056,343,1152,392C1248,441,1344,441,1440,375.7C1536,310,1632,180,1728,147C1824,114,1920,180,2016,179.7C2112,180,2208,114,2304,81.7C2400,49,2496,49,2592,106.2C2688,163,2784,278,2880,302.2C2976,327,3072,261,3168,253.2C3264,245,3360,294,3456,277.7C3552,261,3648,180,3744,196C3840,212,3936,327,4032,318.5C4128,310,4224,180,4320,130.7C4416,82,4512,114,4608,171.5C4704,229,4800,310,4896,294C4992,278,5088,163,5184,98C5280,33,5376,16,5472,32.7C5568,49,5664,98,5760,122.5C5856,147,5952,147,6048,187.8C6144,229,6240,310,6336,318.5C6432,327,6528,261,6624,236.8C6720,212,6816,229,6864,236.8L6912,245L6912,490L6864,490C6816,490,6720,490,6624,490C6528,490,6432,490,6336,490C6240,490,6144,490,6048,490C5952,490,5856,490,5760,490C5664,490,5568,490,5472,490C5376,490,5280,490,5184,490C5088,490,4992,490,4896,490C4800,490,4704,490,4608,490C4512,490,4416,490,4320,490C4224,490,4128,490,4032,490C3936,490,3840,490,3744,490C3648,490,3552,490,3456,490C3360,490,3264,490,3168,490C3072,490,2976,490,2880,490C2784,490,2688,490,2592,490C2496,490,2400,490,2304,490C2208,490,2112,490,2016,490C1920,490,1824,490,1728,490C1632,490,1536,490,1440,490C1344,490,1248,490,1152,490C1056,490,960,490,864,490C768,490,672,490,576,490C480,490,384,490,288,490C192,490,96,490,48,490L0,490Z"/><defs><linearGradient id="sw-gradient-1" x1="0" x2="0" y1="1" y2="0"><stop stop-color="rgba(221.168, 0, 0, 1)" offset="0%"/><stop stop-color="rgba(255, 137.929, 104.465, 1)" offset="100%"/></linearGradient></defs><path style="transform:translate(0, 50px); opacity:0.9" fill="url(#sw-gradient-1)" d="M0,49L48,57.2C96,65,192,82,288,114.3C384,147,480,196,576,196C672,196,768,147,864,163.3C960,180,1056,261,1152,253.2C1248,245,1344,147,1440,114.3C1536,82,1632,114,1728,171.5C1824,229,1920,310,2016,285.8C2112,261,2208,131,2304,89.8C2400,49,2496,98,2592,98C2688,98,2784,49,2880,49C2976,49,3072,98,3168,114.3C3264,131,3360,114,3456,147C3552,180,3648,261,3744,285.8C3840,310,3936,278,4032,228.7C4128,180,4224,114,4320,81.7C4416,49,4512,49,4608,49C4704,49,4800,49,4896,40.8C4992,33,5088,16,5184,73.5C5280,131,5376,261,5472,269.5C5568,278,5664,163,5760,98C5856,33,5952,16,6048,8.2C6144,0,6240,0,6336,24.5C6432,49,6528,98,6624,171.5C6720,245,6816,343,6864,392L6912,441L6912,490L6864,490C6816,490,6720,490,6624,490C6528,490,6432,490,6336,490C6240,490,6144,490,6048,490C5952,490,5856,490,5760,490C5664,490,5568,490,5472,490C5376,490,5280,490,5184,490C5088,490,4992,490,4896,490C4800,490,4704,490,4608,490C4512,490,4416,490,4320,490C4224,490,4128,490,4032,490C3936,490,3840,490,3744,490C3648,490,3552,490,3456,490C3360,490,3264,490,3168,490C3072,490,2976,490,2880,490C2784,490,2688,490,2592,490C2496,490,2400,490,2304,490C2208,490,2112,490,2016,490C1920,490,1824,490,1728,490C1632,490,1536,490,1440,490C1344,490,1248,490,1152,490C1056,490,960,490,864,490C768,490,672,490,576,490C480,490,384,490,288,490C192,490,96,490,48,490L0,490Z"/><defs><linearGradient id="sw-gradient-2" x1="0" x2="0" y1="1" y2="0"><stop stop-color="rgba(243, 62, 62, 1)" offset="0%"/><stop stop-color="rgba(255, 168.205, 156.293, 1)" offset="100%"/></linearGradient></defs><path style="transform:translate(0, 100px); opacity:0.8" fill="url(#sw-gradient-2)" d="M0,245L48,228.7C96,212,192,180,288,187.8C384,196,480,245,576,228.7C672,212,768,131,864,81.7C960,33,1056,16,1152,49C1248,82,1344,163,1440,236.8C1536,310,1632,376,1728,400.2C1824,425,1920,408,2016,400.2C2112,392,2208,392,2304,359.3C2400,327,2496,261,2592,245C2688,229,2784,261,2880,294C2976,327,3072,359,3168,367.5C3264,376,3360,359,3456,343C3552,327,3648,310,3744,318.5C3840,327,3936,359,4032,359.3C4128,359,4224,327,4320,334.8C4416,343,4512,392,4608,359.3C4704,327,4800,212,4896,163.3C4992,114,5088,131,5184,147C5280,163,5376,180,5472,196C5568,212,5664,229,5760,228.7C5856,229,5952,212,6048,245C6144,278,6240,359,6336,400.2C6432,441,6528,441,6624,392C6720,343,6816,245,6864,196L6912,147L6912,490L6864,490C6816,490,6720,490,6624,490C6528,490,6432,490,6336,490C6240,490,6144,490,6048,490C5952,490,5856,490,5760,490C5664,490,5568,490,5472,490C5376,490,5280,490,5184,490C5088,490,4992,490,4896,490C4800,490,4704,490,4608,490C4512,490,4416,490,4320,490C4224,490,4128,490,4032,490C3936,490,3840,490,3744,490C3648,490,3552,490,3456,490C3360,490,3264,490,3168,490C3072,490,2976,490,2880,490C2784,490,2688,490,2592,490C2496,490,2400,490,2304,490C2208,490,2112,490,2016,490C1920,490,1824,490,1728,490C1632,490,1536,490,1440,490C1344,490,1248,490,1152,490C1056,490,960,490,864,490C768,490,672,490,576,490C480,490,384,490,288,490C192,490,96,490,48,490L0,490Z"/></svg>